<?xml version="1.0" encoding="utf-8"?>
<!-- Generator: Adobe Illustrator 19.0.0, SVG Export Plug-In . SVG Version: 6.00 Build 0)  -->
<svg version="1.1" id="Capa_1" xmlns="http://www.w3.org/2000/svg" xmlns:xlink="http://www.w3.org/1999/xlink" x="0px" y="0px"
	 viewBox="-49 141 512 512" style="enable-background:new -49 141 512 512;" xml:space="preserve">
<style type="text/css">
	.st0{fill:#8479C2;}
	.st1{fill:#6E60B8;}
	.st2{fill:#DBEDFF;}
	.st3{fill:#B5DCFF;}
	.st4{fill:#E1E6E9;}
	.st5{fill:#2EA2DB;}
	.st6{fill:#193651;}
	.st7{fill:#F16051;}
	.st8{fill:#FFFFFF;}
	.st9{fill:#AEA7D7;}
</style>
<g>
	<circle class="st0" cx="207" cy="398" r="256"/>
	<path class="st1" d="M0.2,398c0-133.1,101.6-242.4,231.4-254.8c-8.1-0.8-16.3-1.2-24.6-1.2C65.6,142-49,256.6-49,398
		S65.6,654,207,654c8.3,0,16.5-0.4,24.6-1.2C101.7,640.5,0.2,531.1,0.2,398z"/>
	<path class="st2" d="M216.5,173.4C104,186.4,16.6,282,16.6,398s87.4,211.6,200,224.6c119.7-5,215.2-103.6,215.2-224.6
		S336.2,178.4,216.5,173.4z"/>
	<path class="st3" d="M17.8,398c0-118.2,91.2-215,207-224.1c-5.9-0.5-11.8-0.7-17.8-0.7C82.9,173.2-17.8,273.9-17.8,398
		S82.9,622.8,207,622.8c6,0,11.9-0.2,17.8-0.7C108.9,613,17.8,516.2,17.8,398z"/>
	<circle class="st4" cx="233.4" cy="371.7" r="163.4"/>
	<path class="st5" d="M349.8,372.9c0-13.3-9.6-23.5-21.7-24.7c7.8-4.2,12.7-12.7,12.7-22.3c0-13.9-10.9-25.3-24.1-25.3
		c-0.6,0-0.6,0-1.2,0c0.6-1.8,1.2-3.6,1.2-6c0-13.9-10.9-25.3-24.1-25.3c-4.2,0-7.8,1.2-11.5,3.6c-1.2-13.3-11.5-23.5-24.1-23.5
		c-13.3,0-24.1,11.5-24.1,25.3s0,193.6,0,193.6c0,13.9,10.9,25.3,24.1,25.3c12.7,0,23.5-10.9,24.1-24.1c4.2,3.6,9,6,14.5,6
		c13.3,0,24.1-11.5,24.1-25.3c0-4.2-1.2-7.8-3-11.5c1.2,0,1.8,0.6,3,0.6c13.3,0,24.1-11.5,24.1-25.3c0-7.2-3-13.9-7.8-18.7
		C344.4,391,349.8,383.1,349.8,372.9z"/>
	<g>
		<path class="st6" d="M256.9,500.1c-16.9,0-30.2-13.9-30.2-31.4V275.2c0-17.5,13.9-31.4,30.2-31.4c12.7,0,24.1,8.4,28.3,21.1
			c2.4-0.6,4.8-1.2,7.2-1.2c16.9,0,30.2,13.9,30.2,31.4c0,0,0,0,0,0.6c13.9,3,24.1,15.7,24.1,30.8c0,7.2-2.4,14.5-7.2,19.9
			c9.6,5.4,15.7,15.7,15.7,27.1c0,9-3.6,17.5-10.3,23.5c3,4.8,4.8,10.9,4.8,17.5c0,15.7-10.9,28.3-24.7,30.8
			c0.6,1.8,0.6,3.6,0.6,5.4c0,17.5-13.9,31.4-30.2,31.4c-3.6,0-7.2-0.6-10.9-2.4C280.4,491.7,269.6,500.1,256.9,500.1z M256.9,255.3
			c-10.3,0-18.1,9-18.1,19.3v193.6c0,10.9,8.4,19.3,18.1,19.3c9.6,0,17.5-7.8,18.1-18.1c0-2.4,1.8-4.2,3.6-5.4s4.2-0.6,6,0.6
			c7.8,6.6,17.5,5.4,23.5-1.2c3.6-3.6,5.4-8.4,5.4-13.9c0-3-0.6-5.4-2.4-9c-1.2-1.8-0.6-4.2,0.6-6s3.6-3,5.4-2.4
			c0.6,0,1.2,0,2.4,0.6l0,0c10.3,0,18.1-8.4,18.1-19.3c0-5.4-1.8-10.3-6-13.9c-0.6-1.2-1.2-3-1.2-4.8s1.2-3.6,3-4.2
			c6-3.6,10.3-10.3,10.3-16.9c0-9.6-7.2-18.1-16.3-19.3c-2.4,0-4.8-2.4-5.4-4.8s0.6-5.4,3-6.6c6-3.6,9.6-9.6,9.6-16.9
			c0-10.9-7.8-19.3-17.5-19.3c-0.6,0-1.2,0-1.2,0c-1.8,0-3.6-0.6-4.8-2.4c-1.2-1.2-1.8-3.6-1.2-5.4l0.6-1.8c0.6-1.2,0.6-2.4,0.6-3
			c0-10.9-8.4-19.3-18.1-19.3c-2.4,0-5.4,0.6-8.4,2.4c-1.8,1.2-4.2,1.2-6,0s-3-3-3-4.8C273.8,263.1,266,255.3,256.9,255.3z"/>
		<path class="st6" d="M281.7,340.3L281.7,340.3c-3.6,0-6-2.4-6-6s2.4-6,6-6l0,0l0,0c6.6,0,13.3-3,18.7-8.4
			c5.4-5.4,8.4-12.7,8.4-19.3c0-3.6,2.4-6,6-6s6,2.4,6,6c0,9.6-4.2,19.9-12.1,27.7C301.6,336.1,291.9,340.3,281.7,340.3z"/>
		<path class="st6" d="M281.1,476c-3.6,0-6-2.4-6-6c0-9-9-17.5-18.1-17.5c-3.6,0-6-2.4-6-6s2.4-6,6-6c15.7,0,30.2,13.9,30.2,29.6
			C287.1,473.6,284.1,476,281.1,476z"/>
		<path class="st6" d="M298.5,432.6L298.5,432.6c-3.6,0-6-2.4-6-6c0-20.5,23.5-36.8,44-36.8l0,0c3.6,0,6,2.4,6,6s-2.4,6-6,6l0,0
			c-14.5,0-32,11.5-32,24.7C304.6,429.6,302.2,432.6,298.5,432.6z"/>
	</g>
	<path class="st7" d="M116.4,370.5c0,13.3,9.6,23.5,21.7,24.7c-7.8,4.2-12.7,12.7-12.7,22.3c0,13.9,10.9,25.3,24.1,25.3
		c0.6,0,0.6,0,1.2,0c-0.6,1.8-1.2,3.6-1.2,6c0,13.9,10.9,25.3,24.1,25.3c4.2,0,7.8-1.2,11.5-3.6c1.2,13.3,11.5,23.5,24.1,23.5
		c13.3,0,24.1-11.5,24.1-25.3c0-13.9,0-193.6,0-193.6c0-13.9-10.9-25.3-24.1-25.3c-12.7,0-23.5,10.9-24.1,24.1c-4.2-3.6-9-6-14.5-6
		c-13.3,0-24.1,11.5-24.1,25.3c0,4.2,1.2,7.8,3,11.5c-1.2,0-1.8-0.6-3-0.6c-13.3,0-24.1,11.5-24.1,25.3c0,7.2,3,13.9,7.8,18.7
		C121.8,352.4,116.4,360.8,116.4,370.5z"/>
	<g>
		<path class="st6" d="M209.3,500.1c-12.7,0-24.1-8.4-28.3-21.1c-2.4,0.6-4.8,1.2-7.2,1.2c-16.9,0-30.2-13.9-30.2-31.4
			c0,0,0,0,0-0.6c-13.9-3-24.1-15.7-24.1-30.8c0-7.2,2.4-14.5,7.2-19.9c-9.6-5.4-15.7-15.7-15.7-27.1c0-9,3.6-17.5,10.3-23.5
			c-3-4.8-4.8-10.9-4.8-17.5c0-15.7,10.9-28.3,24.7-30.8c-0.6-1.8-0.6-3.6-0.6-5.4c0-17.5,13.9-31.4,30.2-31.4
			c3.6,0,7.2,0.6,10.9,2.4c4.2-12.1,15.1-20.5,28.3-20.5c16.9,0,30.2,13.9,30.2,31.4v193.6C239.4,486.3,226.2,500.1,209.3,500.1z
			 M185.2,464.6c1.2,0,1.8,0,3,0.6c1.8,1.2,3,3,3,4.8c0.6,10.3,8.4,17.5,18.1,17.5l0,0c10.3,0,18.1-9,18.1-19.3v-193
			c0-10.9-8.4-19.3-18.1-19.3s-17.5,7.8-18.1,18.1c0,2.4-1.8,4.2-3.6,5.4c-1.8,1.2-4.2,0.6-6-0.6c-3.6-3-7.2-4.2-10.9-4.2
			c-10.3,0-18.1,9-18.1,19.3c0,3,0.6,5.4,2.4,9c1.2,1.8,0.6,4.2-0.6,6c-1.2,1.8-3.6,3-5.4,2.4c-0.6,0-1.2,0-2.4-0.6
			c-4.8,0-9,1.8-12.7,5.4s-5.4,8.4-5.4,13.9c0,5.4,1.8,10.3,6,13.9c1.2,1.2,1.8,3,1.8,4.8s-1.2,3.6-3,4.2
			c-6,3.6-10.3,10.3-10.3,16.9c0,9.6,7.2,18.1,16.3,19.3c2.4,0,4.8,2.4,5.4,4.8c0.6,2.4-0.6,5.4-3,6.6c-6.6,3.6-10.3,9.6-10.3,16.9
			c0,10.9,7.8,19.3,17.5,19.3c0.6,0,1.2,0,1.2,0c1.8,0,3.6,0.6,4.8,2.4c1.2,1.2,1.8,3.6,1.2,5.4l-0.6,1.8c0,0.6,0,1.8,0,2.4
			c0,10.9,8.4,19.3,18.1,19.3c2.4,0,5.4-0.6,8.4-2.4C183.4,465.2,184.6,464.6,185.2,464.6z"/>
		<path class="st6" d="M209.3,302.9L209.3,302.9c-15.7,0-29.6-13.9-29.6-29.6c0-3.6,2.4-6,6-6s6,2.4,6,6c0,9,9,17.5,18.1,17.5
			c3.6,0,6,2.4,6,6C215.3,299.9,212.3,302.9,209.3,302.9z"/>
		<path class="st6" d="M129.7,354.2c-3.6,0-6-2.4-6-6s2.4-6,6-6l0,0c7.2,0,15.7-3,21.7-7.8c3.6-3,10.3-9,10.3-16.9c0-3.6,2.4-6,6-6
			l0,0c3.6,0,6,2.4,6,6c0,9.6-5.4,19.3-15.1,26.5C150.2,350.6,139.3,354.2,129.7,354.2z"/>
		<path class="st6" d="M233.4,416.9c-3.6,0-6-2.4-6-6c0-19.9,16.3-36.2,36.2-36.2c3.6,0,6,2.4,6,6s-2.4,6-6,6
			c-13.3,0-24.1,10.9-24.1,24.1C239.4,414.5,237,416.9,233.4,416.9z"/>
		<path class="st6" d="M202.1,362c-3.6,0-6-2.4-6-6c0-19.9,16.3-36.2,36.2-36.2c3.6,0,6,2.4,6,6s-2.4,6-6,6
			c-13.3,0-24.1,10.9-24.1,24.1C208.1,359.6,205.7,362,202.1,362z"/>
	</g>
	<path class="st8" d="M209.9,420.5c0-48.8-40.4-87.4-89.9-85c-41.6,1.8-76.6,35-80.8,77.2c-3,32.6,12.1,61.5,36.2,78.4
		c6.6,4.8,10.9,12.7,10.9,20.5v57.9h76.6v-57.9c0-7.8,3.6-15.7,10.3-20.5C194.8,475.4,209.9,449.5,209.9,420.5z"/>
	<path class="st6" d="M162.2,574.9h-76c-3.6,0-6-2.4-6-6V511c0-6.6-3-12.1-8.4-15.7c-27.1-18.7-41.6-51.3-38.6-83.8
		c4.2-44.6,41.6-80.2,86.2-82.6c52.5-2.4,96.5,39.8,96.5,91.7c0,30.2-14.5,57.9-39.2,75.4c-4.8,3.6-7.8,9-7.8,15.7v57.9
		C168.3,571.9,165.9,574.9,162.2,574.9z M92.3,562.9h64.5V511c0-10.3,4.8-19.9,13.3-25.3c20.5-15.1,33.8-39.2,33.8-65.1
		c0-45.2-38-81.4-83.2-79c-39.2,1.8-71.2,32.6-75.4,71.2c-3,28.9,9.6,56.1,33.8,73c8.4,6,13.3,15.7,13.3,25.9
		C92.3,511.6,92.3,562.9,92.3,562.9z"/>
	<path class="st9" d="M124.3,356c-1.2,0-2.4,0-3,0c-30.8,1.2-57.9,26.5-60.9,57.9c-2.4,23.5,7.8,45.2,27.1,59.1
		c12.7,8.4,19.9,22.9,19.9,38v13.3h33.8V511c0-15.1,7.2-29.6,19.3-38c17.5-12.1,27.7-32,27.7-52.5C188.2,384.9,159.2,356,124.3,356z
		"/>
	<rect x="371.5" y="365.7" class="st6" width="12.1" height="12.7"/>
	
		<rect x="352.3" y="293.3" transform="matrix(-0.8661 0.4999 -0.4999 -0.8661 818.5291 380.0265)" class="st6" width="12.1" height="12.7"/>
	
		<rect x="299.3" y="240.4" transform="matrix(-0.5003 0.8658 -0.8658 -0.5003 671.7614 105.7829)" class="st6" width="12.1" height="12.7"/>
	<rect x="226.8" y="510.4" class="st6" width="12.7" height="12.1"/>
	<rect x="226.8" y="220.9" class="st6" width="12.7" height="12.1"/>
	
		<rect x="299.2" y="491.1" transform="matrix(-0.8661 0.4999 -0.4999 -0.8661 818.747 774.9093)" class="st6" width="12.7" height="12.1"/>
	
		<rect x="154.3" y="240.3" transform="matrix(-0.8661 0.4999 -0.4999 -0.8661 422.9823 379.3449)" class="st6" width="12.7" height="12.1"/>
	
		<rect x="352" y="437.9" transform="matrix(-0.5001 0.866 -0.866 -0.5001 922.0734 355.6417)" class="st6" width="12.7" height="12.1"/>
	
		<rect x="101.3" y="293.4" transform="matrix(-0.4999 0.8661 -0.8661 -0.4999 420.924 355.9362)" class="st6" width="12.7" height="12.1"/>
	<rect x="10.9" y="409.7" class="st6" width="12.1" height="12.7"/>
	<rect x="25.2" y="462.7" transform="matrix(-0.866 0.5 -0.5 -0.866 292.8209 859.6363)" class="st6" width="12.1" height="12.7"/>
	
		<rect x="64" y="317" transform="matrix(-0.8661 0.4999 -0.4999 -0.8661 292.8102 567.5995)" class="st6" width="12.7" height="12.1"/>
	
		<rect x="24.8" y="356.2" transform="matrix(-0.4999 0.8661 -0.8661 -0.4999 360.4298 516.3754)" class="st6" width="12.7" height="12.1"/>
	<path class="st8" d="M104.4,568.9v5.4c0,10.9,9,19.9,19.9,19.9s19.9-9,19.9-19.9v-5.4H104.4z"/>
	<path class="st6" d="M144.2,562.9h-39.8c-3.6,0-6,2.4-6,6v5.4c0,14.5,11.5,25.9,25.9,25.9s25.9-11.5,25.9-25.9v-5.4
		C150.2,565.3,147.2,562.9,144.2,562.9z M124.3,588.2c-7.2,0-13.3-6-13.9-13.3h27.7C137.5,582.2,131.5,588.2,124.3,588.2z"/>
	<path class="st8" d="M160.4,419.3C160.4,419.3,160.4,419.9,160.4,419.3c8.4,9,1.2,23.5-10.3,23.5h-12.7v-12.7
		C136.9,418.1,151.4,410.9,160.4,419.3L160.4,419.3z"/>
	<path class="st6" d="M149.6,448.9h-12.7c-3.6,0-6-2.4-6-6v-12.7c0-11.5,9-20.5,20.5-20.5c4.8,0,9.6,1.8,13.3,5.4l0.6,0.6
		c5.4,5.4,6.6,13.3,3.6,21.1C165.3,444,158,448.9,149.6,448.9z M143,436.8h6.6c4.2,0,6.6-3,7.8-5.4c0.6-1.2,1.8-4.8-1.2-7.8
		c-1.8-1.8-3-2.4-4.8-2.4c-4.2,0-8.4,3-8.4,8.4L143,436.8L143,436.8z"/>
	<path class="st8" d="M88.1,419.3C88.1,419.3,88.1,419.9,88.1,419.3c-8.4,9-1.2,23.5,10.3,23.5H111v-12.7
		C111,418.1,96.5,410.9,88.1,419.3L88.1,419.3z"/>
	<g>
		<path class="st6" d="M111,448.9H98.3c-7.8,0-15.7-4.8-18.7-12.7c-3-7.2-1.8-15.1,3.6-20.5l0.6-0.6c3.6-3.6,8.4-5.4,13.3-5.4
			c11.5,0,20.5,9,20.5,20.5v12.7C117,445.9,114.6,448.9,111,448.9z M97.1,421.7c-1.8,0-3,0.6-4.8,1.8c-3,3-1.8,6.6-1.8,7.8
			c1.2,2.4,3.6,5.4,7.8,5.4h6.6v-6.6C105,424.8,100.7,421.7,97.1,421.7z"/>
		<path class="st6" d="M136.9,530.3c-3.6,0-6-2.4-6-6v-75.4H117v75.4c0,3.6-2.4,6-6,6s-6-2.4-6-6v-81.4c0-3.6,2.4-6,6-6h25.9
			c3.6,0,6,2.4,6,6v81.4C143,527.3,140.5,530.3,136.9,530.3z"/>
		<path class="st6" d="M173.7,530.3H74.2c-3.6,0-6-2.4-6-6s2.4-6,6-6h99.5c3.6,0,6,2.4,6,6C179.7,527.3,177.3,530.3,173.7,530.3z"/>
		<path class="st6" d="M173.7,552.6H74.2c-3.6,0-6-2.4-6-6s2.4-6,6-6h99.5c3.6,0,6,2.4,6,6C179.7,550.2,177.3,552.6,173.7,552.6z"/>
	</g>
</g>
</svg>
