<?xml version="1.0" encoding="utf-8"?>
<!-- Generator: Adobe Illustrator 19.0.0, SVG Export Plug-In . SVG Version: 6.00 Build 0)  -->
<svg version="1.1" id="Capa_1" xmlns="http://www.w3.org/2000/svg" xmlns:xlink="http://www.w3.org/1999/xlink" x="0px" y="0px"
	 viewBox="-49 141 512 512" style="enable-background:new -49 141 512 512;" xml:space="preserve">
<style type="text/css">
	.st0{fill:#8479C2;}
	.st1{fill:#6E60B8;}
	.st2{fill:#DBEDFF;}
	.st3{fill:#B5DCFF;}
	.st4{fill:#898890;}
	.st5{fill:#57565C;}
	.st6{fill:#FF7956;}
	.st7{fill:#FFDAAA;}
	.st8{fill:#FFC477;}
	.st9{fill:#AEA7D7;}
	.st10{fill:#FFDE55;}
	.st11{fill:#FFCD00;}
</style>
<g>
	<circle class="st0" cx="207" cy="397" r="256"/>
	<path class="st1" d="M0.2,397c0-133.1,101.6-242.4,231.4-254.8c-8.1-0.8-16.3-1.2-24.6-1.2C65.6,141-49,255.6-49,397
		S65.6,653,207,653c8.3,0,16.5-0.4,24.6-1.2C101.7,639.5,0.2,530.1,0.2,397z"/>
	<path class="st2" d="M216.5,172.4C104,185.4,16.6,281,16.6,397s87.4,211.6,200,224.6c119.7-5,215.2-103.6,215.2-224.6
		S336.2,177.4,216.5,172.4z"/>
	<path class="st3" d="M17.8,397c0-118.2,91.2-215,207-224.1c-5.9-0.5-11.8-0.7-17.8-0.7C82.9,172.2-17.8,272.9-17.8,397
		S82.9,621.8,207,621.8c6,0,11.9-0.2,17.8-0.7C108.9,612,17.8,515.2,17.8,397z"/>
	<g id="Genetic">
		<path class="st4" d="M339.6,418.7v94.2l-0.4,1h-93.4l-0.4-1v-94.2c0-17.3,14.1-31.4,31.4-31.4h31.4
			C325.5,387.3,339.6,401.4,339.6,418.7L339.6,418.7z"/>
		<path class="st5" d="M339.6,418.7v94.2l-0.4,1h-20.9l0.4-1v-94.2c0-17.3-14.1-31.4-31.4-31.4h20.9
			C325.5,387.3,339.6,401.4,339.6,418.7z"/>
		<path class="st0" d="M365.8,355.9c-7.1,0.1-14.2-1.2-20.9-3.6v-76.5c6.7-2.5,13.8-3.7,20.9-3.6V355.9z"/>
		<path class="st6" d="M344.8,352.3c-7.8-3-14.9-7.6-20.9-13.4v-49.7c6-5.8,13.1-10.4,20.9-13.4V352.3z"/>
		<path class="st0" d="M323.9,338.9c-7.8-7.6-14.9-15.9-21.1-24.9c6.2-8.9,13.3-17.3,21.1-24.9V338.9z"/>
		<path class="st0" d="M298.4,307.9c-2.8-3.8-5.5-7.7-8.5-11.5c17.5-23.1,38.8-45.2,75.9-45.2v20.9c-7.1-0.1-14.2,1.2-20.9,3.6
			c-7.8,3-14.9,7.6-20.9,13.4c-7.8,7.6-14.9,15.9-21.1,24.9C301.3,312,299.9,310,298.4,307.9L298.4,307.9z"/>
		<path class="st7" d="M323.9,423.9v31.4c0,17.3-14.1,31.4-31.4,31.4s-31.4-14.1-31.4-31.4v-31.4l47.1-10.5L323.9,423.9z"/>
		<path class="st8" d="M323.9,423.9v31.4c0,17.3-14,31.4-31.3,31.4c0,0,0,0-0.1,0c-3.6,0-7.1-0.6-10.5-1.8c0.5-0.1,0.9-0.3,1.4-0.5
			c11.8-4.8,19.6-16.3,19.6-29.1v-31.4l-10.5-7l15.7-3.5L323.9,423.9z"/>
		<path class="st7" d="M280.7,484.4c7.6,3.1,16.1,3.1,23.7,0l3.9,23.2l-15.7,15.7l-15.7-15.7L280.7,484.4z"/>
		<path class="st0" d="M62.2,251.2c37.1,0,58.4,22.1,75.9,45.2c2.9,3.8,5.7,7.7,8.5,11.5c1.5,2.1,3,4.1,4.4,6.1
			c6.2,8.9,13.3,17.3,21.1,24.9c6,5.8,13.1,10.4,20.9,13.4c13.5,4.8,28.3,4.8,41.9,0c7.8-3,14.9-7.6,20.9-13.4
			c7.8-7.6,14.9-15.9,21.1-24.9c1.5,2,2.9,4,4.4,6.1c2.8,3.8,5.5,7.7,8.5,11.5c-17.5,23.1-38.8,45.2-75.9,45.2s-58.4-22.1-75.9-45.2
			c-2.9-3.8-5.7-7.7-8.5-11.5c-1.5-2.1-3-4.1-4.4-6.1c-6.2-8.9-13.3-17.3-21.1-24.9c-6-5.8-13.1-10.4-20.9-13.4
			c-6.7-2.5-13.8-3.7-20.9-3.6L62.2,251.2z"/>
		<path class="st1" d="M271.6,502.4l20.9,20.9l20.9-20.9l47.1,20.9v31.4h-136v-31.4L271.6,502.4z"/>
		<path class="st9" d="M360.5,523.4v31.4h-20.9v-31.4L307,508.9l6.4-6.4L360.5,523.4z"/>
		<g>
			<path class="st6" d="M255.9,289.2c7.8,7.6,14.9,15.9,21.1,24.9c-6.2,8.9-13.3,17.3-21.1,24.9V289.2z"/>
			<path class="st1" d="M234.9,275.8c7.8,3,14.9,7.6,20.9,13.4v49.7c-6,5.8-13.1,10.4-20.9,13.4V275.8z"/>
			<path class="st6" d="M214,355.9v-83.7c7.1-0.1,14.2,1.2,20.9,3.6v76.5C228.2,354.7,221.1,356,214,355.9z"/>
			<path class="st1" d="M214,355.9c-7.1,0.1-14.2-1.2-20.9-3.6v-76.5c6.7-2.5,13.8-3.7,20.9-3.6V355.9z"/>
			<path class="st6" d="M193.1,352.3c-7.8-3-14.9-7.6-20.9-13.4v-49.7c6-5.8,13.1-10.4,20.9-13.4V352.3z"/>
		</g>
		<path class="st10" d="M104.1,439.6l-15.7-15.7v-5.2c0-17.3,14.1-31.4,31.4-31.4h31.4c17.3,0,31.4,14.1,31.4,31.4v5.2l-15.7,15.7
			v-15.7L125,413.5L104.1,424V439.6z"/>
		<path class="st7" d="M166.9,455.3v-15.7h10.5c2.9,0,5.2,2.3,5.2,5.2v5.2c0,2.9-2.3,5.2-5.2,5.2L166.9,455.3L166.9,455.3z"/>
		<path class="st6" d="M172.1,338.9c-7.8-7.6-14.9-15.9-21.1-24.9c6.2-8.9,13.3-17.3,21.1-24.9V338.9z"/>
		<path class="st1" d="M146.6,307.9c-2.8-3.8-5.5-7.7-8.5-11.5c17.5-23.1,38.8-45.2,75.9-45.2s58.4,22.1,75.9,45.2
			c2.9,3.8,5.7,7.7,8.5,11.5c1.5,2.1,3,4.1,4.4,6.1c6.2,8.9,13.3,17.3,21.1,24.9c6,5.8,13.1,10.4,20.9,13.4
			c6.7,2.5,13.8,3.7,20.9,3.6v20.9c-37.1,0-58.4-22.1-75.9-45.2c-2.9-3.8-5.7-7.7-8.5-11.5c-1.5-2.1-3-4.1-4.4-6.1
			c-6.2-8.9-13.3-17.3-21.1-24.9c-6-5.8-13.1-10.4-20.9-13.4c-13.5-4.8-28.3-4.8-41.9,0c-7.8,3-14.9,7.6-20.9,13.4
			c-7.8,7.6-14.9,15.9-21.1,24.9C149.6,312,148.1,310,146.6,307.9L146.6,307.9z"/>
		<path class="st7" d="M123.7,484.4c7.6,3.1,16.1,3.1,23.7,0l3.9,23.2l-15.7,15.7l-15.7-15.7L123.7,484.4z"/>
		<path class="st7" d="M166.9,423.9v31.4c0,17.3-14.1,31.4-31.4,31.4s-31.4-14.1-31.4-31.4v-31.4l20.9-10.5L166.9,423.9z"/>
		<path class="st9" d="M83.2,352.3c7.8-3,14.9-7.6,20.9-13.4c7.8-7.6,14.9-15.9,21.1-24.9c1.5,2,2.9,4,4.4,6.1
			c2.8,3.8,5.5,7.7,8.5,11.5c-17.5,23.1-38.8,45.2-75.9,45.2v-20.9C69.4,356,76.5,354.7,83.2,352.3L83.2,352.3z"/>
		<path class="st9" d="M114.6,502.4l20.9,20.9l20.9-20.9l47.1,20.9v31.4h-136v-31.4L114.6,502.4z"/>
		<path class="st1" d="M203.5,523.4v31.4h-20.9v-31.4L150,508.9l6.4-6.4L203.5,523.4z"/>
		<path class="st9" d="M104.1,289.2c7.8,7.6,14.9,15.9,21.1,24.9c-6.2,8.9-13.3,17.3-21.1,24.9V289.2z"/>
		<path class="st6" d="M104.1,289.2v49.7c-6,5.8-13.1,10.4-20.9,13.4v-76.5C91,278.8,98.1,283.4,104.1,289.2z"/>
		<path class="st7" d="M88.4,444.9c0-2.9,2.3-5.2,5.2-5.2h10.5v15.7H93.6c-2.9,0-5.2-2.3-5.2-5.2V444.9z"/>
		<path class="st9" d="M83.2,275.8v76.5c-6.7,2.5-13.8,3.7-20.9,3.6v-83.7C69.4,272.1,76.5,273.3,83.2,275.8z"/>
		<path class="st11" d="M182.6,418.7v5.2l-15.7,15.7v-15.7l-5.2-1.3v-3.9c0-17.3-14.1-31.4-31.4-31.4h20.9
			C168.5,387.3,182.6,401.4,182.6,418.7z"/>
		<path class="st8" d="M166.9,423.9v31.4c0,17.3-14,31.4-31.3,31.4c0,0,0,0-0.1,0c-3.6,0-7.1-0.6-10.5-1.8c0.5-0.1,0.9-0.3,1.4-0.5
			c11.8-4.8,19.6-16.3,19.6-29.1v-31.4l-27.9-7l7-3.5L166.9,423.9z"/>
		<path d="M365.8,246c-36.1,0-58,19.5-75.9,41.9C272,265.5,250.1,246,214,246s-58,19.5-75.9,41.9C120.3,265.5,98.3,246,62.2,246
			c-2.9,0-5.2,2.3-5.2,5.2v125.6c0,2.9,2.3,5.2,5.2,5.2c36.1,0,58-19.5,75.9-41.9c17.8,22.3,39.8,41.9,75.9,41.9s58-19.5,75.9-41.9
			c17.8,22.3,39.8,41.9,75.9,41.9c2.9,0,5.2-2.3,5.2-5.2V251.2C371,248.3,368.7,246,365.8,246z M67.5,277.6c3.5,0.3,7.1,1,10.5,2
			v68.9c-3.4,1-6.9,1.7-10.5,2V277.6z M67.5,371.4V361c26.4-1.9,42.3-18,57.7-38.1l1.7,2.3c1.6,2.1,3.1,4.3,4.8,6.4
			C113.8,354.3,95.6,369.8,67.5,371.4z M88.4,344.1V284c3.7,2.1,7.2,4.6,10.5,7.5v45.1C95.6,339.4,92.1,341.9,88.4,344.1z
			 M109.3,325.9v-23.7c3.1,3.7,6.2,7.6,9.3,11.8C115.6,318.2,112.5,322.2,109.3,325.9z M214,371.6c-32.4,0-52.1-17.2-71.7-43.1
			c-2.4-3.1-4.7-6.3-7-9.5l-5.9-8.1c-16.7-22.8-33.1-41.8-62-43.9v-10.5c29.4,1.8,48,18.5,66.5,43c2.4,3.1,4.7,6.3,7,9.5l5.9,8.1
			c17.7,24.1,35,44,67.2,44c29.6,0,46.6-16.9,62.9-38.3l1.7,2.3c1.6,2.1,3.1,4.3,4.8,6.4C264.5,355.7,245.1,371.6,214,371.6
			L214,371.6z M157.6,314c3.1-4.2,6.2-8.2,9.3-11.8v23.7C163.8,322.2,160.7,318.2,157.6,314z M177.4,336.6v-45.1
			c3.2-2.8,6.7-5.4,10.5-7.5v60.1C184.1,341.9,180.6,339.4,177.4,336.6z M198.3,348.5v-68.9c3.4-1,6.9-1.7,10.5-2v72.8
			C205.2,350.1,201.7,349.5,198.3,348.5L198.3,348.5z M219.2,350.5v-72.8c3.5,0.3,7.1,1,10.5,2v68.9
			C226.3,349.5,222.8,350.1,219.2,350.5z M240.2,344.1V284c3.7,2.1,7.2,4.6,10.5,7.5v45.1C247.4,339.4,243.9,341.9,240.2,344.1z
			 M261.1,325.9v-23.7c3.1,3.7,6.2,7.6,9.3,11.8C267.3,318.2,264.2,322.2,261.1,325.9z M360.5,371.4c-29.4-1.8-48-18.5-66.5-43
			c-2.4-3.1-4.7-6.3-7-9.5l-5.9-8.1c-17.7-24.1-35-44-67.2-44c-29.6,0-46.6,16.9-62.9,38.3l-1.7-2.3c-1.6-2.1-3.1-4.3-4.8-6.4
			c18.8-24.1,38.2-40,69.3-40c32.4,0,52.1,17.2,71.7,43.1c2.4,3.1,4.7,6.3,7,9.5l5.9,8.1c16.7,22.8,33.1,41.8,62,43.9v10.4H360.5z
			 M309.4,314c3.1-4.2,6.2-8.2,9.3-11.8v23.7C315.5,322.2,312.4,318.2,309.4,314z M329.1,336.6v-45.1c3.2-2.8,6.7-5.4,10.5-7.5v60.1
			C335.9,341.9,332.4,339.4,329.1,336.6z M360.5,350.5c-3.5-0.3-7.1-1-10.5-2v-68.9c3.4-1,6.9-1.7,10.5-2V350.5z M360.5,267.1
			c-26.4,1.9-42.3,18-57.7,38.1l-1.7-2.3c-1.6-2.1-3.1-4.3-4.8-6.4c17.7-22.7,36-38.2,64.1-39.8v10.4H360.5z"/>
		<path d="M140.7,439.6h10.5v10.5h-10.5V439.6z"/>
		<path d="M119.8,439.6h10.5v10.5h-10.5V439.6z"/>
		<path d="M205.7,518.6l-47.1-20.9c-1.2-0.5-2.5-0.6-3.8-0.2l-1.7-10.1c10-5.6,16.9-15.5,18.6-26.8h5.7c5.8,0,10.4-4.7,10.5-10.5
			v-5.2c0-5-3.6-9.3-8.5-10.3l7-7c1-1,1.5-2.3,1.5-3.7v-5.2c0-20.2-16.4-36.6-36.6-36.6h-31.4c-20.2,0-36.6,16.4-36.6,36.6v5.2
			c0,1.4,0.6,2.7,1.5,3.7l7,7c-4.9,1-8.5,5.3-8.5,10.3v5.2c0,5.8,4.7,10.4,10.5,10.5h5.7c1.7,11.4,8.5,21.3,18.6,26.8l-1.7,10.1
			c-1.2-0.4-2.6-0.4-3.8,0.2l-47.1,20.9c-1.9,0.8-3.1,2.7-3.1,4.8v31.4c0,2.9,2.3,5.2,5.2,5.2h136.1c2.9,0,5.2-2.3,5.2-5.2v-31.4
			C208.8,521.3,207.6,519.4,205.7,518.6z M177.4,450.1h-5.2v-5.2h5.2V450.1z M98.9,450.1h-5.2v-5.2h5.2V450.1z M98.9,423.9v3.1
			l-5.2-5.2v-3.1c0-14.5,11.7-26.2,26.2-26.2h31.4c14.5,0,26.2,11.7,26.2,26.2v3.1l-5.2,5.2v-3.1c0-2.4-1.6-4.5-4-5.1l-41.9-10.5
			c-1.2-0.3-2.5-0.2-3.6,0.4l-20.9,10.5C100,420.1,98.8,422,98.9,423.9z M109.3,455.3v-28.2l16.3-8.2l36,9v27.3
			c0,14.5-11.7,26.2-26.2,26.2S109.3,469.8,109.3,455.3z M145.6,505.9L135.5,516l-10.1-10.1l2.5-14.8c5,1.1,10.2,1.1,15.3,0
			L145.6,505.9z M198.3,549.5H72.7v-22.8l40.7-18.1l18.4,18.4c2.1,2,5.4,2,7.4,0l18.4-18.4l40.7,18.1L198.3,549.5L198.3,549.5z"/>
		<path d="M297.7,439.6h10.5v10.5h-10.5V439.6z"/>
		<path d="M276.8,439.6h10.5v10.5h-10.5V439.6z"/>
		<path d="M362.7,518.6l-17.8-8v-91.9c0-20.2-16.4-36.6-36.6-36.6h-31.4c-20.2,0-36.6,16.4-36.6,36.6v91.9l-17.8,8
			c-1.9,0.8-3.1,2.7-3.1,4.8v31.4c0,2.9,2.3,5.2,5.2,5.2h136.1c2.9,0,5.2-2.3,5.2-5.2v-31.4C365.8,521.3,364.6,519.4,362.7,518.6z
			 M250.6,418.7c0-14.5,11.7-26.2,26.2-26.2h31.4c14.5,0,26.2,11.7,26.2,26.2V506l-18.8-8.3c-1.2-0.5-2.5-0.6-3.8-0.2l-1.7-10.1
			c11.7-6.4,19-18.7,19-32.1v-31.4c0-1.8-0.9-3.4-2.4-4.3L311,409.1c-1.2-0.8-2.6-1.1-4-0.8l-47.1,10.5c-2.4,0.6-4.1,2.7-4.1,5.1
			v31.4c0,13.4,7.3,25.6,19,32.1l-1.7,10.1c-1.2-0.4-2.6-0.4-3.8,0.2l-18.8,8.3L250.6,418.7L250.6,418.7z M292.5,481.5
			c-14.5,0-26.2-11.7-26.2-26.2v-27.2l40.8-9.1l11.5,7.7v28.6C318.7,469.8,307,481.5,292.5,481.5z M302.6,505.9L292.5,516
			l-10.1-10.1l2.5-14.8c5,1.1,10.2,1.1,15.3,0L302.6,505.9z M355.3,549.5H229.7v-22.8l40.7-18.1l18.4,18.4c2.1,2,5.4,2,7.4,0
			l18.4-18.4l40.7,18.1V549.5z"/>
	</g>
</g>
</svg>
