<?xml version="1.0" encoding="utf-8"?>
<!-- Generator: Adobe Illustrator 19.0.0, SVG Export Plug-In . SVG Version: 6.00 Build 0)  -->
<svg version="1.1" id="Capa_1" xmlns="http://www.w3.org/2000/svg" xmlns:xlink="http://www.w3.org/1999/xlink" x="0px" y="0px"
	 viewBox="-49 141 512 512" style="enable-background:new -49 141 512 512;" xml:space="preserve">
<style type="text/css">
	.st0{fill:#8479C2;}
	.st1{fill:#6E60B8;}
	.st2{fill:#DBEDFF;}
	.st3{fill:#B5DCFF;}
	.st4{fill:#60B9FE;}
	.st5{fill:#FF7F87;}
	.st6{fill:#AEA7D7;}
</style>
<g>
	<circle class="st0" cx="207" cy="397" r="256"/>
	<path class="st1" d="M0.2,397c0-133.1,101.6-242.4,231.4-254.8c-8.1-0.8-16.3-1.2-24.6-1.2C65.6,141-49,255.6-49,397
		S65.6,653,207,653c8.3,0,16.5-0.4,24.6-1.2C101.7,639.5,0.2,530.1,0.2,397z"/>
	<path class="st2" d="M216.5,172.4C104,185.4,16.6,281,16.6,397s87.4,211.6,200,224.6c119.7-5,215.2-103.6,215.2-224.6
		S336.2,177.4,216.5,172.4z"/>
	<path class="st3" d="M17.8,397c0-118.2,91.2-215,207-224.1c-5.9-0.5-11.8-0.7-17.8-0.7C82.9,172.2-17.8,272.9-17.8,397
		S82.9,621.8,207,621.8c6,0,11.9-0.2,17.8-0.7C108.9,612,17.8,515.2,17.8,397z"/>
	<g>
		<path class="st4" d="M257.7,459.8L144,346.3c-3-3-3-7.9,0-10.9c3-3,7.9-3,10.9,0l113.6,113.6c3,3,3,7.9,0,10.9
			C265.6,462.8,260.7,462.8,257.7,459.8z"/>
	</g>
	<g>
		<path class="st5" d="M277.9,418.6l-93.2-93.2c-3-3-3-7.9,0-10.9s7.9-3,10.9,0l93.2,93.2c3,3,3,7.9,0,10.9
			C285.8,421.7,280.9,421.7,277.9,418.6z"/>
	</g>
	<g>
		<path class="st5" d="M216.5,480.1l-93.2-93.2c-3-3-3-7.9,0-10.9s7.9-3,10.9,0l93.2,93.2c3,3,3,7.9,0,10.9
			C224.4,483.1,219.5,483.1,216.5,480.1z"/>
	</g>
	<g>
		<path class="st4" d="M369.4,344.2L259.6,234.5c-3-3-3-7.9,0-10.9c3-3,7.9-3,10.9,0l109.8,109.7c3,3,3,7.9,0,10.9
			C377.4,347.2,372.5,347.2,369.4,344.2L369.4,344.2z"/>
	</g>
	<g>
		<path class="st4" d="M143.4,570.2L33.6,460.5c-3-3-3-7.9,0-10.9c3-3,7.9-3,10.9,0l109.8,109.7c3,3,3,7.9,0,10.9
			C151.3,573.2,146.4,573.2,143.4,570.2z"/>
	</g>
	<g>
		<path class="st0" d="M282,213.8c6-6,6-15.8,0-21.9c-6-6-15.8-6-21.9,0c-17.9,17.9-25.3,41.2-22.5,71c1.4,14.7,5.2,30,9.8,45.4
			l1.9,2.7l32.4,10.8l2-1.7C269.5,277.7,257.8,238,282,213.8z"/>
		<path class="st0" d="M118.4,437.5c-15.4-4.7-30.8-8.4-45.4-9.8c-29.9-2.8-53.1,4.5-71,22.5c-6,6-6,15.8,0,21.9c6,6,15.8,6,21.9,0
			c24.2-24.2,63.9-12.5,106.4,1.8l1.1-4l-10.9-30.3L118.4,437.5z"/>
		<path class="st0" d="M305.4,401.9c-1.4-14.7-5.2-30-9.8-45.4l-4.2-4.3l-29.6-8.6l-2.5,1.1c14.2,42.6,25.9,82.3,1.8,106.4
			c-24.2,24.2-63.9,12.5-106.4-1.8l-2.1,3.6l7.3,27.3l6.6,5.3c15.4,4.7,30.8,8.4,45.4,9.8c29.9,2.8,53.1-4.5,71-22.5
			C300.9,455,308.2,431.8,305.4,401.9z"/>
	</g>
	<path class="st1" d="M265.7,299c-2.1-0.7-3.7-2.4-4.3-4.4c-4.5-15.1-8.2-30.1-9.5-44.4c-2.4-25.1,2.4-45.5,14.7-62
		c-2.4,0.7-4.6,2-6.5,3.9c-17.9,17.9-25.3,41.2-22.5,71c1.4,14.7,5.2,30,9.8,45.4l1.9,2.7l32.4,10.8l2-1.7
		c-1.9-5.8-3.8-11.5-5.6-17.1L265.7,299z"/>
	<g>
		<path class="st1" d="M21,459.1c-6-6-6-15.8,0-21.9c0.8-0.8,1.7-1.7,2.6-2.4c-7.9,3.7-15.1,8.8-21.6,15.3c-6,6-6,15.8,0,21.9
			c6,6,15.8,6,21.9,0c4.1-4.1,8.8-7.2,13.8-9.4C32,464.7,25.5,463.6,21,459.1L21,459.1z"/>
		<path class="st1" d="M42.9,459.1c-1.3,1.3-2.8,2.3-4.4,3.1c24.1-10,57-0.1,91.8,11.6l1.1-4l-5.9-16.5
			C92.2,443.5,62.4,439.5,42.9,459.1L42.9,459.1z"/>
	</g>
	<g>
		<path class="st1" d="M266,445.2c3.2-1.9,6.2-4.2,9-7c21-21,14.9-53.6,3.7-89.7l-17-4.9l-2.5,1.1C272.5,384,283.4,420.8,266,445.2
			L266,445.2z"/>
		<path class="st1" d="M225.9,482.5c-13.7-1.3-28-4.7-42.3-8.9c-5.2-1.5-9.5-5.7-11.1-11.3l-2.1-7.8c-5.2-1.6-10.5-3.4-15.8-5.1
			l-2.1,3.6l7.3,27.3l6.6,5.3c15.4,4.7,30.8,8.4,45.4,9.8c29.9,2.8,53.1-4.5,71-22.5c1.5-1.5,2.9-3,4.2-4.5
			C270.8,480.3,250.6,484.9,225.9,482.5L225.9,482.5z"/>
	</g>
	<path class="st6" d="M412,322c-6-6-15.8-6-21.9,0c-39.6,39.6-120.9-17.1-188.1-23.4c-5.9-0.6-11.6-0.7-17-0.5
		c-15.9,3-29.3,10.1-40.6,21.4c-17.9,17.9-25.3,42.2-22.5,72.1c6.4,67.2,63,148.5,23.4,188.1c-6,6-2.9,17.9,3.1,23.9
		c0.5,0.5,0.9,0.9,1.4,1.3c1.4-0.7,2.7-1.7,3.9-2.8c17.9-17.9,25.3-41.2,22.5-71c-6.4-67.2-63-148.5-23.4-188.1
		c39.6-39.6,120.9,17.1,188.1,23.4c29.9,2.8,53.1-4.5,71-22.5C418.1,337.8,418.1,328.1,412,322L412,322z"/>
	<g>
		<path class="st0" d="M148.6,601.6c-6-6-6-15.8,0-21.9c39.6-39.6-17.1-120.9-23.4-188.1c-2.8-29.9,4.5-53.1,22.5-71
			c12.9-12.9,28.6-20.4,47.6-22.4c-26.5-1.1-47.6,6.4-64.1,22.9c-17.9,17.9-25.3,41.2-22.5,71c6.4,67.2,63,148.5,23.4,188.1
			c-6,6-6,15.8,0,21.9c5.3,5.3,13.6,5.9,19.6,1.9C150.5,603.3,149.5,602.5,148.6,601.6L148.6,601.6z"/>
	</g>
</g>
</svg>
